<svg xmlns="http://www.w3.org/2000/svg" version="1.1" xmlns:xlink="http://www.w3.org/1999/xlink" xmlns:svgjs="http://svgjs.dev/svgjs" width="1500" height="1500" viewBox="0 0 1500 1500"><g transform="matrix(1,0,0,1,-0.323615160350073,-0.3236151603499593)"><svg viewBox="0 0 343 343" data-background-color="#ffffff" preserveAspectRatio="xMidYMid meet" height="1500" width="1500" xmlns="http://www.w3.org/2000/svg" xmlns:xlink="http://www.w3.org/1999/xlink"><g id="tight-bounds" transform="matrix(1,0,0,1,0.0740000000000407,0.07400000000001228)"><svg viewBox="0 0 342.85155851775386 342.85155851775386" height="342.85155851775386" width="342.85155851775386"><g><svg></svg></g><g><svg viewBox="0 0 342.85155851775386 342.85155851775386" height="342.85155851775386" width="342.85155851775386"><g><path d="M0 171.426c0-94.676 76.75-171.426 171.426-171.426 94.676 0 171.426 76.75 171.426 171.426 0 94.676-76.75 171.426-171.426 171.426-94.676 0-171.426-76.75-171.426-171.426zM171.426 329.072c87.065 0 157.646-70.58 157.646-157.646 0-87.065-70.58-157.646-157.646-157.646-87.065 0-157.646 70.58-157.646 157.646 0 87.065 70.58 157.646 157.646 157.646z" data-fill-palette-color="tertiary" fill="#ee3e38" stroke="transparent"></path><ellipse rx="164.56874808852186" ry="164.56874808852186" cx="171.42577925887693" cy="171.42577925887693" fill="#ee3e38" stroke="transparent" stroke-width="0" fill-opacity="1" data-fill-palette-color="tertiary"></ellipse></g><g transform="matrix(1,0,0,1,64.84655864529837,95.02381902736276)"><svg viewBox="0 0 213.1584412271571 152.80392046302833" height="152.80392046302833" width="213.1584412271571"><g><svg viewBox="0 0 213.1584412271571 152.80392046302833" height="152.80392046302833" width="213.1584412271571"><g><svg viewBox="0 0 213.1584412271571 152.80392046302833" height="152.80392046302833" width="213.1584412271571"><g><svg viewBox="0 0 213.1584412271571 152.80392046302833" height="152.80392046302833" width="213.1584412271571"><g id="textblocktransform"><svg viewBox="0 0 213.1584412271571 152.80392046302833" height="152.80392046302833" width="213.1584412271571" id="textblock"><g><svg viewBox="0 0 213.1584412271571 152.80392046302833" height="152.80392046302833" width="213.1584412271571"><g transform="matrix(1,0,0,1,0,0)"><svg width="213.1584412271571" viewBox="1.95 -37.75 52.8 37.849999999999994" height="152.80392046302833" data-palette-color="#ffffff"><path d="M21.35-10.75Q20.15-8 18.68-5.98 17.2-3.95 15.58-2.58 13.95-1.2 12.3-0.55 10.65 0.1 9.1 0.1L9.1 0.1Q7.55 0.1 6.28-0.6 5-1.3 4.05-2.7 3.1-4.1 2.53-6.15 1.95-8.2 1.95-10.95L1.95-10.95Q1.95-15.65 3.25-20.23 4.55-24.8 6.9-28.45 9.25-32.1 12.48-34.33 15.7-36.55 19.6-36.55L19.6-36.55Q20.8-36.55 21.9-36.05 23-35.55 23.8-34.65 24.6-33.75 25.08-32.45 25.55-31.15 25.55-29.55L25.55-29.55Q25.55-29.25 25.55-28.93 25.55-28.6 25.5-28.25L25.5-28.25 18.95-26.5Q18.35-27.75 17.55-27.75L17.55-27.75Q16.75-27.75 15.88-26.83 15-25.9 14.15-24.43 13.3-22.95 12.5-21.13 11.7-19.3 11.1-17.45 10.5-15.6 10.13-13.93 9.75-12.25 9.75-11.2L9.75-11.2Q9.75-9.6 10.18-8.95 10.6-8.3 11.3-8.3L11.3-8.3Q11.85-8.3 12.55-8.72 13.25-9.15 13.85-9.83 14.45-10.5 14.95-11.35 15.45-12.2 15.65-13.05L15.65-13.05 21.35-10.75ZM27.1-0.85L18.85-0.3Q21.05-6.95 23.05-13.35L23.05-13.35Q23.9-16.05 24.8-19 25.7-21.95 26.6-24.85 27.5-27.75 28.27-30.45 29.05-33.15 29.65-35.45L29.65-35.45Q32.4-35.45 34.85-35.75 37.3-36.05 40.15-36.3L40.15-36.3Q40-35.2 39.82-33.83 39.65-32.45 39.42-30.95 39.2-29.45 38.95-27.85 38.7-26.25 38.35-23.75 38-21.25 37.4-17.5L37.4-17.5 38.05-17.5Q39.5-21.3 40.45-23.83 41.4-26.35 42-27.95 42.6-29.55 43.22-31.08 43.85-32.6 44.42-33.98 45-35.35 45.5-36.4L45.5-36.4Q46.75-36.5 47.85-36.65 48.95-36.8 50.05-36.98 51.15-37.15 52.27-37.33 53.4-37.5 54.75-37.75L54.75-37.75Q54.25-34.85 53.8-31.8 53.35-28.75 53-25.73 52.65-22.7 52.32-19.75 52-16.8 51.75-14.15L51.75-14.15Q51.15-7.95 50.7-2.05L50.7-2.05 42-0.5Q42-0.75 42.07-1.85 42.15-2.95 42.27-4.55 42.4-6.15 42.62-8.1 42.85-10.05 43.07-12 43.3-13.95 43.55-15.78 43.8-17.6 44.05-18.9L44.05-18.9 43.6-18.9Q42.9-16.8 42.05-14.48 41.2-12.15 40.32-9.75 39.45-7.35 38.6-5.05 37.75-2.75 37.1-0.65L37.1-0.65Q35.35-0.6 34.1-0.53 32.85-0.45 31.2-0.35L31.2-0.35 32.8-18.9 32.05-18.9Q31.95-18.25 31.55-16.73 31.15-15.2 30.62-13.23 30.1-11.25 29.5-9.13 28.9-7 28.37-5.18 27.85-3.35 27.5-2.18 27.15-1 27.1-0.85L27.1-0.85Z" opacity="1" transform="matrix(1,0,0,1,0,0)" fill="#ffffff" class="wordmark-text-0" data-fill-palette-color="quaternary" id="text-0"></path></svg></g></svg></g></svg></g></svg></g><g></g></svg></g></svg></g></svg></g></svg></g><defs></defs></svg><rect width="342.85155851775386" height="342.85155851775386" fill="none" stroke="none" visibility="hidden"></rect></g></svg></g></svg>